<mxfile host="Electron" modified="2023-11-01T09:48:08.083Z" agent="Mozilla/5.0 (Windows NT 10.0; Win64; x64) AppleWebKit/537.36 (KHTML, like Gecko) draw.io/22.0.3 Chrome/114.0.5735.289 Electron/25.8.4 Safari/537.36" etag="marjVq25kzGd3xSky8rH" version="22.0.3" type="device">
  <diagram name="第 1 页" id="2FISZoZGbKOTBUCJsezb">
    <mxGraphModel dx="1036" dy="606" grid="1" gridSize="10" guides="1" tooltips="1" connect="1" arrows="1" fold="1" page="1" pageScale="1" pageWidth="827" pageHeight="1169" math="0" shadow="0">
      <root>
        <mxCell id="0" />
        <mxCell id="1" parent="0" />
        <mxCell id="MJvKewxP6mEphRL44FiA-2" value="" style="shape=table;startSize=0;container=1;collapsible=0;childLayout=tableLayout;fontSize=16;" vertex="1" parent="1">
          <mxGeometry x="210" y="250" width="440" height="300" as="geometry" />
        </mxCell>
        <mxCell id="MJvKewxP6mEphRL44FiA-18" style="shape=tableRow;horizontal=0;startSize=0;swimlaneHead=0;swimlaneBody=0;strokeColor=inherit;top=0;left=0;bottom=0;right=0;collapsible=0;dropTarget=0;fillColor=none;points=[[0,0.5],[1,0.5]];portConstraint=eastwest;fontSize=16;" vertex="1" parent="MJvKewxP6mEphRL44FiA-2">
          <mxGeometry width="440" height="60" as="geometry" />
        </mxCell>
        <mxCell id="MJvKewxP6mEphRL44FiA-19" value="&amp;nbsp;一般用戶" style="shape=partialRectangle;html=1;whiteSpace=wrap;connectable=0;strokeColor=inherit;overflow=hidden;fillColor=none;top=0;left=0;bottom=0;right=0;pointerEvents=1;fontSize=16;" vertex="1" parent="MJvKewxP6mEphRL44FiA-18">
          <mxGeometry width="148" height="60" as="geometry">
            <mxRectangle width="148" height="60" as="alternateBounds" />
          </mxGeometry>
        </mxCell>
        <mxCell id="MJvKewxP6mEphRL44FiA-20" value="操作員" style="shape=partialRectangle;html=1;whiteSpace=wrap;connectable=0;strokeColor=inherit;overflow=hidden;fillColor=none;top=0;left=0;bottom=0;right=0;pointerEvents=1;fontSize=16;" vertex="1" parent="MJvKewxP6mEphRL44FiA-18">
          <mxGeometry x="148" width="144" height="60" as="geometry">
            <mxRectangle width="144" height="60" as="alternateBounds" />
          </mxGeometry>
        </mxCell>
        <mxCell id="MJvKewxP6mEphRL44FiA-21" value="管理員" style="shape=partialRectangle;html=1;whiteSpace=wrap;connectable=0;strokeColor=inherit;overflow=hidden;fillColor=none;top=0;left=0;bottom=0;right=0;pointerEvents=1;fontSize=16;" vertex="1" parent="MJvKewxP6mEphRL44FiA-18">
          <mxGeometry x="292" width="148" height="60" as="geometry">
            <mxRectangle width="148" height="60" as="alternateBounds" />
          </mxGeometry>
        </mxCell>
        <mxCell id="MJvKewxP6mEphRL44FiA-3" value="" style="shape=tableRow;horizontal=0;startSize=0;swimlaneHead=0;swimlaneBody=0;strokeColor=inherit;top=0;left=0;bottom=0;right=0;collapsible=0;dropTarget=0;fillColor=none;points=[[0,0.5],[1,0.5]];portConstraint=eastwest;fontSize=16;" vertex="1" parent="MJvKewxP6mEphRL44FiA-2">
          <mxGeometry y="60" width="440" height="60" as="geometry" />
        </mxCell>
        <mxCell id="MJvKewxP6mEphRL44FiA-4" value="學生餘額" style="shape=partialRectangle;html=1;whiteSpace=wrap;connectable=0;strokeColor=inherit;overflow=hidden;fillColor=none;top=0;left=0;bottom=0;right=0;pointerEvents=1;fontSize=16;" vertex="1" parent="MJvKewxP6mEphRL44FiA-3">
          <mxGeometry width="148" height="60" as="geometry">
            <mxRectangle width="148" height="60" as="alternateBounds" />
          </mxGeometry>
        </mxCell>
        <mxCell id="MJvKewxP6mEphRL44FiA-5" value="學生信息" style="shape=partialRectangle;html=1;whiteSpace=wrap;connectable=0;strokeColor=inherit;overflow=hidden;fillColor=none;top=0;left=0;bottom=0;right=0;pointerEvents=1;fontSize=16;" vertex="1" parent="MJvKewxP6mEphRL44FiA-3">
          <mxGeometry x="148" width="144" height="60" as="geometry">
            <mxRectangle width="144" height="60" as="alternateBounds" />
          </mxGeometry>
        </mxCell>
        <mxCell id="MJvKewxP6mEphRL44FiA-6" value="基本數據表" style="shape=partialRectangle;html=1;whiteSpace=wrap;connectable=0;strokeColor=inherit;overflow=hidden;fillColor=none;top=0;left=0;bottom=0;right=0;pointerEvents=1;fontSize=16;" vertex="1" parent="MJvKewxP6mEphRL44FiA-3">
          <mxGeometry x="292" width="148" height="60" as="geometry">
            <mxRectangle width="148" height="60" as="alternateBounds" />
          </mxGeometry>
        </mxCell>
        <mxCell id="MJvKewxP6mEphRL44FiA-7" value="" style="shape=tableRow;horizontal=0;startSize=0;swimlaneHead=0;swimlaneBody=0;strokeColor=inherit;top=0;left=0;bottom=0;right=0;collapsible=0;dropTarget=0;fillColor=none;points=[[0,0.5],[1,0.5]];portConstraint=eastwest;fontSize=16;" vertex="1" parent="MJvKewxP6mEphRL44FiA-2">
          <mxGeometry y="120" width="440" height="60" as="geometry" />
        </mxCell>
        <mxCell id="MJvKewxP6mEphRL44FiA-8" value="上機紀錄" style="shape=partialRectangle;html=1;whiteSpace=wrap;connectable=0;strokeColor=inherit;overflow=hidden;fillColor=none;top=0;left=0;bottom=0;right=0;pointerEvents=1;fontSize=16;" vertex="1" parent="MJvKewxP6mEphRL44FiA-7">
          <mxGeometry width="148" height="60" as="geometry">
            <mxRectangle width="148" height="60" as="alternateBounds" />
          </mxGeometry>
        </mxCell>
        <mxCell id="MJvKewxP6mEphRL44FiA-9" value="充值金額" style="shape=partialRectangle;html=1;whiteSpace=wrap;connectable=0;strokeColor=inherit;overflow=hidden;fillColor=none;top=0;left=0;bottom=0;right=0;pointerEvents=1;fontSize=16;" vertex="1" parent="MJvKewxP6mEphRL44FiA-7">
          <mxGeometry x="148" width="144" height="60" as="geometry">
            <mxRectangle width="144" height="60" as="alternateBounds" />
          </mxGeometry>
        </mxCell>
        <mxCell id="MJvKewxP6mEphRL44FiA-10" value="日帳單" style="shape=partialRectangle;html=1;whiteSpace=wrap;connectable=0;strokeColor=inherit;overflow=hidden;fillColor=none;top=0;left=0;bottom=0;right=0;pointerEvents=1;fontSize=16;" vertex="1" parent="MJvKewxP6mEphRL44FiA-7">
          <mxGeometry x="292" width="148" height="60" as="geometry">
            <mxRectangle width="148" height="60" as="alternateBounds" />
          </mxGeometry>
        </mxCell>
        <mxCell id="MJvKewxP6mEphRL44FiA-11" value="" style="shape=tableRow;horizontal=0;startSize=0;swimlaneHead=0;swimlaneBody=0;strokeColor=inherit;top=0;left=0;bottom=0;right=0;collapsible=0;dropTarget=0;fillColor=none;points=[[0,0.5],[1,0.5]];portConstraint=eastwest;fontSize=16;" vertex="1" parent="MJvKewxP6mEphRL44FiA-2">
          <mxGeometry y="180" width="440" height="60" as="geometry" />
        </mxCell>
        <mxCell id="MJvKewxP6mEphRL44FiA-12" value="充值紀錄" style="shape=partialRectangle;html=1;whiteSpace=wrap;connectable=0;strokeColor=inherit;overflow=hidden;fillColor=none;top=0;left=0;bottom=0;right=0;pointerEvents=1;fontSize=16;" vertex="1" parent="MJvKewxP6mEphRL44FiA-11">
          <mxGeometry width="148" height="60" as="geometry">
            <mxRectangle width="148" height="60" as="alternateBounds" />
          </mxGeometry>
        </mxCell>
        <mxCell id="MJvKewxP6mEphRL44FiA-13" value="退卡金額" style="shape=partialRectangle;html=1;whiteSpace=wrap;connectable=0;strokeColor=inherit;overflow=hidden;fillColor=none;top=0;left=0;bottom=0;right=0;pointerEvents=1;fontSize=16;" vertex="1" parent="MJvKewxP6mEphRL44FiA-11">
          <mxGeometry x="148" width="144" height="60" as="geometry">
            <mxRectangle width="144" height="60" as="alternateBounds" />
          </mxGeometry>
        </mxCell>
        <mxCell id="MJvKewxP6mEphRL44FiA-14" value="周帳單" style="shape=partialRectangle;html=1;whiteSpace=wrap;connectable=0;strokeColor=inherit;overflow=hidden;fillColor=none;top=0;left=0;bottom=0;right=0;pointerEvents=1;fontSize=16;" vertex="1" parent="MJvKewxP6mEphRL44FiA-11">
          <mxGeometry x="292" width="148" height="60" as="geometry">
            <mxRectangle width="148" height="60" as="alternateBounds" />
          </mxGeometry>
        </mxCell>
        <mxCell id="MJvKewxP6mEphRL44FiA-26" style="shape=tableRow;horizontal=0;startSize=0;swimlaneHead=0;swimlaneBody=0;strokeColor=inherit;top=0;left=0;bottom=0;right=0;collapsible=0;dropTarget=0;fillColor=none;points=[[0,0.5],[1,0.5]];portConstraint=eastwest;fontSize=16;" vertex="1" parent="MJvKewxP6mEphRL44FiA-2">
          <mxGeometry y="240" width="440" height="60" as="geometry" />
        </mxCell>
        <mxCell id="MJvKewxP6mEphRL44FiA-27" value="上機狀態" style="shape=partialRectangle;html=1;whiteSpace=wrap;connectable=0;strokeColor=inherit;overflow=hidden;fillColor=none;top=0;left=0;bottom=0;right=0;pointerEvents=1;fontSize=16;" vertex="1" parent="MJvKewxP6mEphRL44FiA-26">
          <mxGeometry width="148" height="60" as="geometry">
            <mxRectangle width="148" height="60" as="alternateBounds" />
          </mxGeometry>
        </mxCell>
        <mxCell id="MJvKewxP6mEphRL44FiA-28" value="操作員工作紀錄" style="shape=partialRectangle;html=1;whiteSpace=wrap;connectable=0;strokeColor=inherit;overflow=hidden;fillColor=none;top=0;left=0;bottom=0;right=0;pointerEvents=1;fontSize=16;" vertex="1" parent="MJvKewxP6mEphRL44FiA-26">
          <mxGeometry x="148" width="144" height="60" as="geometry">
            <mxRectangle width="144" height="60" as="alternateBounds" />
          </mxGeometry>
        </mxCell>
        <mxCell id="MJvKewxP6mEphRL44FiA-29" style="shape=partialRectangle;html=1;whiteSpace=wrap;connectable=0;strokeColor=inherit;overflow=hidden;fillColor=none;top=0;left=0;bottom=0;right=0;pointerEvents=1;fontSize=16;" vertex="1" parent="MJvKewxP6mEphRL44FiA-26">
          <mxGeometry x="292" width="148" height="60" as="geometry">
            <mxRectangle width="148" height="60" as="alternateBounds" />
          </mxGeometry>
        </mxCell>
      </root>
    </mxGraphModel>
  </diagram>
</mxfile>
